<?xml version="1.0" encoding="utf-8"?>
<!-- Generator: Adobe Illustrator 27.5.0, SVG Export Plug-In . SVG Version: 6.00 Build 0)  -->
<svg version="1.1" id="BASE" xmlns="http://www.w3.org/2000/svg" xmlns:xlink="http://www.w3.org/1999/xlink" x="0px" y="0px"
	 viewBox="0 0 2050 2196" style="enable-background:new 0 0 2050 2196;" xml:space="preserve">
<g>
	<path style="fill:#757679;" d="M1745.213,146.393H304.17c-40.245,0-72.868,31.856-72.868,71.153v556.388l30.1,1195.353
		c-0.073,16.73,6.082,33.565,17.219,46.544c11.088,13.033,27.063,21.858,44.142,24.749c4.232,0.883,8.671,0.991,12.895,1.232
		l12.53,0.299l25.055,0.6l50.111,1.198c66.816,1.252,133.632,2.384,200.445,3.104c66.815,0.987,133.631,1.206,200.447,1.785
		l200.445,0.593l200.445-0.562c66.816-0.598,133.631-0.788,200.445-1.782c66.816-0.723,133.631-1.855,200.448-3.107l50.111-1.206
		l25.055-0.603l12.527-0.302c4.226-0.242,8.667-0.351,12.9-1.236c17.086-2.89,33.055-11.72,44.145-24.756
		c11.14-12.982,17.292-29.82,17.21-46.549l30.102-1195.353V217.546C1818.08,178.249,1785.455,146.393,1745.213,146.393z"/>
	<path style="fill:#818286;" d="M1677.978,167.853H322.086c-37.866,0-68.562,29.974-68.562,66.95v523.511l28.321,1124.72
		c-0.069,15.742,5.722,31.582,16.201,43.794c10.432,12.263,25.463,20.566,41.534,23.286c3.983,0.831,8.158,0.933,12.133,1.16
		l11.79,0.281l23.575,0.565l47.149,1.127c62.867,1.178,125.736,2.244,188.601,2.921c62.868,0.928,125.736,1.135,188.604,1.679
		l188.601,0.557l188.601-0.529c62.867-0.562,125.735-0.742,188.6-1.677c62.869-0.68,125.736-1.745,188.604-2.924l47.149-1.135
		l23.575-0.568l11.788-0.284c3.977-0.228,8.155-0.33,12.136-1.163c16.077-2.719,31.102-11.028,41.538-23.294
		c10.482-12.214,16.27-28.057,16.193-43.799l28.324-1124.72V234.803C1746.541,197.827,1715.843,167.853,1677.978,167.853z"/>
	<path style="fill:#4E4F51;" d="M1695.078,752.181l-0.118-27.086l-0.324-54.202l-0.192-35.349
		c-0.227-24.24-0.434-48.481-0.631-72.721c-0.766-95.096-1.442-190.193-2.642-285.289c0-29.27-19.791-53.869-46.724-61.216
		c-5.34-1.459-10.961-2.242-16.763-2.242H372.395c-35.083,0-63.507,28.377-63.507,63.458v496.345l26.238,1066.351
		c0.827,34.45,29.008,61.903,63.459,61.903c119.337,1.506,238.672,2.186,358.009,3.255l358.01,1.896
		c119.336,0.777,238.673,0.631,358.01,0.971l86.699,0.141l-0.094,0.004h2.866l13.558,0.029l8.823,0.02h16.782l6.122-0.291
		c12.091-0.969,23.859-5.225,33.827-12.077c3.541-2.429,6.859-5.181,9.886-8.234c9.99-9.865,16.686-22.915,19.165-36.703
		c0.431-2.373,0.742-4.769,0.92-7.173c0.167-1.83,0.245-3.508,0.29-5.126c0.074-2.164,0.094-4.222,0.178-6.39l0.293-11.176
		l0.349-13.44l0.254-8.96l2.331-89.454l16.082-715.873l3.451-178.955c0.242-14.918,0.681-29.835,0.778-44.752L1695.078,752.181z"/>
	<rect x="439.554" y="427.914" style="fill:#5E6062;" width="1133.582" height="313.896"/>
	<rect x="1202.122" y="291.072" style="fill:#45342A;" width="351.386" height="91.571"/>
	<polygon style="fill:#33251C;" points="1229.673,316.729 1553.507,316.729 1553.507,291.072 1202.122,291.072 1202.122,382.643 
		1229.673,382.643 	"/>
	<path style="fill:#3F4142;" d="M616.142,929.811H461.159c-12.608,0-23.431,7.753-28.092,18.815l-9.445,20.083
		c-2.902,4.621-4.582,10.087-4.582,15.946v81.094c0,10.007,4.915,18.846,12.44,24.302c4.947,3.585,11.01,5.724,17.586,5.724h152.374
		c11.216,0,20.994-6.152,26.148-15.265l11.566-15.658c4.685-5.447,7.525-12.57,7.525-20.367v-83.688
		c0-6.786-2.175-13.043-5.822-18.148C635.31,934.883,626.32,929.811,616.142,929.811z"/>
	<path style="fill:#3F4142;" d="M923.491,929.811H768.507c-12.614,0-23.441,7.76-28.099,18.831l-9.438,20.067
		c-2.902,4.621-4.582,10.087-4.582,15.946v81.094c0,10.007,4.915,18.846,12.441,24.302c4.947,3.585,11.009,5.724,17.585,5.724
		h152.375c11.215,0,20.993-6.151,26.147-15.263l11.568-15.66c4.686-5.447,7.524-12.57,7.524-20.367v-83.688
		c0-6.786-2.174-13.043-5.822-18.148C942.658,934.883,933.668,929.811,923.491,929.811z"/>
	<path style="fill:#3F4142;" d="M1230.838,929.811h-154.983c-12.615,0-23.441,7.76-28.1,18.831l-9.435,20.064
		c-2.903,4.622-4.584,10.089-4.584,15.949v81.094c0,10.007,4.915,18.846,12.441,24.302c4.946,3.585,11.009,5.724,17.585,5.724
		h152.375c11.216,0,20.993-6.151,26.148-15.264l11.571-15.663c4.683-5.446,7.52-12.568,7.52-20.363v-83.688
		c0-6.786-2.174-13.043-5.822-18.148C1250.006,934.883,1241.016,929.811,1230.838,929.811z"/>
	<path style="fill:#3F4142;" d="M1562.901,942.649c-5.547-7.767-14.538-12.839-24.715-12.839h-154.984
		c-12.614,0-23.442,7.76-28.099,18.831l-9.437,20.067c-2.902,4.621-4.582,10.087-4.582,15.946v81.094
		c0,10.007,4.915,18.846,12.44,24.302c4.946,3.585,11.009,5.724,17.585,5.724h152.375c11.216,0,20.993-6.152,26.149-15.264
		l11.562-15.654c4.688-5.447,7.528-12.572,7.528-20.371v-83.688C1568.724,954.011,1566.549,947.754,1562.901,942.649z"/>
	<path style="fill:#3F4142;" d="M616.142,1167.561H461.159c-12.611,0-23.436,7.756-28.095,18.822l-9.441,20.076
		c-2.902,4.62-4.582,10.087-4.582,15.945v81.094c0,10.008,4.915,18.846,12.44,24.302c4.947,3.585,11.01,5.724,17.586,5.724h152.374
		c11.217,0,20.995-6.152,26.15-15.266l11.564-15.654c4.686-5.447,7.526-12.57,7.526-20.369v-83.688
		c0-6.786-2.175-13.043-5.822-18.148C635.31,1172.633,626.32,1167.561,616.142,1167.561z"/>
	<path style="fill:#3F4142;" d="M923.491,1167.561H768.507c-12.617,0-23.446,7.764-28.103,18.838l-9.434,20.059
		c-2.902,4.621-4.582,10.088-4.582,15.947v81.094c0,10.008,4.915,18.846,12.441,24.302c4.947,3.585,11.009,5.724,17.585,5.724
		h152.375c11.215,0,20.993-6.151,26.147-15.264l11.566-15.658c4.685-5.447,7.525-12.571,7.525-20.368v-83.688
		c0-6.786-2.174-13.043-5.822-18.148C942.658,1172.633,933.668,1167.561,923.491,1167.561z"/>
	<path style="fill:#3F4142;" d="M1230.838,1167.561h-154.983c-12.617,0-23.446,7.764-28.102,18.838l-9.432,20.056
		c-2.903,4.621-4.585,10.089-4.585,15.949v81.094c0,10.008,4.915,18.846,12.441,24.302c4.946,3.585,11.009,5.724,17.585,5.724
		h152.375c11.217,0,20.994-6.152,26.149-15.264l11.569-15.661c4.684-5.446,7.521-12.568,7.521-20.364v-83.688
		c0-6.786-2.174-13.043-5.822-18.148C1250.006,1172.633,1241.016,1167.561,1230.838,1167.561z"/>
	<path style="fill:#3F4142;" d="M1538.187,1167.561h-154.984c-12.618,0-23.446,7.764-28.103,18.838l-9.434,20.06
		c-2.902,4.62-4.582,10.087-4.582,15.945v81.094c0,10.008,4.915,18.846,12.44,24.302c4.946,3.585,11.009,5.724,17.585,5.724h152.375
		c11.216,0,20.994-6.152,26.149-15.265l11.561-15.651c4.688-5.447,7.529-12.574,7.529-20.373v-83.688
		c0-6.786-2.175-13.043-5.822-18.148C1557.354,1172.633,1548.363,1167.561,1538.187,1167.561z"/>
	<path style="fill:#3F4142;" d="M616.142,1405.311H461.159c-12.61,0-23.433,7.755-28.094,18.819l-9.443,20.078
		c-2.902,4.621-4.582,10.088-4.582,15.947v81.094c0,10.008,4.915,18.846,12.44,24.302c4.947,3.585,11.01,5.724,17.586,5.724h152.374
		c11.216,0,20.994-6.153,26.148-15.265l11.568-15.659c4.684-5.446,7.523-12.569,7.523-20.365v-83.688
		c0-6.786-2.175-13.043-5.822-18.148C635.31,1410.383,626.32,1405.311,616.142,1405.311z"/>
	<path style="fill:#3F4142;" d="M923.491,1405.311H768.507c-12.616,0-23.443,7.762-28.101,18.834l-9.435,20.062
		c-2.902,4.621-4.583,10.088-4.583,15.947v81.094c0,10.008,4.915,18.846,12.441,24.302c4.947,3.585,11.009,5.724,17.585,5.724
		h152.375c11.215,0,20.993-6.151,26.147-15.262l11.57-15.663c4.684-5.446,7.522-12.568,7.522-20.364v-83.688
		c0-6.786-2.174-13.043-5.822-18.148C942.658,1410.383,933.668,1405.311,923.491,1405.311z"/>
	<path style="fill:#3F4142;" d="M1230.838,1405.311h-154.983c-12.616,0-23.444,7.762-28.101,18.834l-9.433,20.059
		c-2.903,4.622-4.585,10.09-4.585,15.95v81.094c0,10.008,4.915,18.846,12.441,24.302c4.946,3.585,11.009,5.724,17.585,5.724h152.375
		c11.216,0,20.993-6.151,26.148-15.263l11.572-15.666c4.682-5.446,7.519-12.567,7.519-20.361v-83.688
		c0-6.786-2.174-13.043-5.822-18.148C1250.006,1410.383,1241.016,1405.311,1230.838,1405.311z"/>
	<path style="fill:#3F4142;" d="M1538.187,1405.311h-154.984c-12.616,0-23.443,7.762-28.1,18.834l-9.435,20.063
		c-2.902,4.621-4.582,10.088-4.582,15.947v81.094c0,10.008,4.915,18.846,12.44,24.302c4.946,3.585,11.009,5.724,17.585,5.724
		h152.375c11.216,0,20.993-6.151,26.149-15.264l11.563-15.656c4.687-5.447,7.527-12.571,7.527-20.369v-83.688
		c0-6.786-2.175-13.043-5.822-18.148C1557.354,1410.383,1548.363,1405.311,1538.187,1405.311z"/>
	<path style="fill:#3F4142;" d="M616.142,1643.061H461.159c-12.608,0-23.431,7.753-28.092,18.815l-9.445,20.084
		c-2.902,4.621-4.582,10.087-4.582,15.945v81.093c0,10.008,4.915,18.847,12.44,24.302c4.947,3.585,11.01,5.724,17.586,5.724h152.374
		c11.216,0,20.994-6.152,26.148-15.265l11.566-15.656c4.685-5.447,7.525-12.571,7.525-20.368v-83.688
		c0-6.786-2.175-13.043-5.822-18.148C635.31,1648.133,626.32,1643.061,616.142,1643.061z"/>
	<path style="fill:#3F4142;" d="M923.491,1643.061H768.507c-12.614,0-23.441,7.76-28.099,18.831l-9.438,20.067
		c-2.902,4.621-4.582,10.088-4.582,15.946v81.093c0,10.008,4.915,18.847,12.441,24.302c4.947,3.585,11.009,5.724,17.585,5.724
		h152.375c11.215,0,20.993-6.151,26.147-15.263l11.568-15.661c4.686-5.445,7.524-12.57,7.524-20.366v-83.688
		c0-6.786-2.174-13.043-5.822-18.148C942.658,1648.133,933.668,1643.061,923.491,1643.061z"/>
	<path style="fill:#3F4142;" d="M1230.838,1643.061h-154.983c-12.615,0-23.441,7.76-28.1,18.831l-9.435,20.064
		c-2.903,4.621-4.584,10.089-4.584,15.949v81.093c0,10.008,4.915,18.847,12.441,24.302c4.946,3.585,11.009,5.724,17.585,5.724
		h152.375c11.216,0,20.993-6.151,26.148-15.263l11.571-15.664c4.683-5.446,7.52-12.568,7.52-20.363v-83.688
		c0-6.786-2.174-13.043-5.822-18.148C1250.006,1648.133,1241.016,1643.061,1230.838,1643.061z"/>
	<path style="fill:#3F4142;" d="M1538.187,1643.061h-154.984c-12.614,0-23.442,7.76-28.099,18.831l-9.437,20.068
		c-2.902,4.621-4.582,10.087-4.582,15.945v81.093c0,10.008,4.915,18.847,12.44,24.302c4.946,3.585,11.009,5.724,17.585,5.724
		h152.375c11.216,0,20.993-6.151,26.149-15.264l11.562-15.654c4.688-5.447,7.528-12.573,7.528-20.371v-83.688
		c0-6.786-2.175-13.043-5.822-18.148C1557.354,1648.133,1548.363,1643.061,1538.187,1643.061z"/>
	<path style="fill:#444546;" d="M1694.931,725.094l-0.295-54.202l-0.192-35.349c-0.227-24.24-0.434-48.481-0.631-72.721
		c-0.779-95.096-1.432-190.193-2.671-285.289c0-29.27-19.791-53.869-46.695-61.216c-5.34-1.459-10.961-2.242-16.763-2.242h-43.147
		c35.081,0,63.506,28.377,63.506,63.458c1.505,119.337,2.188,238.674,3.255,358.01l0.534,89.551l0.194,44.751
		c-0.097,14.917-0.533,29.835-0.777,44.752l-3.45,178.955l-16.083,715.873l-2.332,89.454l-0.583,22.4l-0.292,11.176
		c-0.145,3.789-0.097,7.239-0.486,11.516c-1.167,16.374-8.358,32.313-20.068,43.876c-11.565,11.661-27.356,18.998-43.731,20.311
		l-4.911,0.239l-0.094,0.004h2.866l13.558,0.029l8.842,0.02h16.763l6.122-0.291c12.091-0.969,23.859-5.225,33.827-12.077
		c3.533-2.429,6.842-5.181,9.856-8.234c9.99-9.865,16.689-22.915,19.195-36.703c0.431-2.373,0.742-4.769,0.92-7.173
		c0.167-1.83,0.245-3.508,0.29-5.126c0.06-2.164,0.066-4.222,0.149-6.39l0.291-11.176l0.38-13.44l0.254-8.96l2.331-89.454
		l16.082-715.873l3.451-178.955c0.242-14.918,0.681-29.835,0.778-44.752l-0.096-17.665L1694.931,725.094z"/>
	<polygon style="fill:#3F4142;" points="1531.593,468.107 1568.854,432.057 1573.136,427.914 439.554,427.914 443.836,432.057 
		481.098,468.107 481.098,701.616 439.554,741.811 1573.136,741.811 1531.593,701.616 	"/>
	<rect x="481.099" y="468.108" style="fill:#A3B7A4;" width="1050.494" height="233.508"/>
	<path style="fill:#818286;" d="M631.464,1065.749v-81.094c0-6.576-2.137-12.639-5.724-17.585
		c-5.454-7.526-14.293-12.44-24.299-12.44H449.067c-6.956,0-13.357,2.365-18.447,6.334c-2.758,2.151-5.131,4.774-6.997,7.746
		c-2.902,4.621-4.582,10.087-4.582,15.946v81.094c0,10.007,4.915,18.846,12.44,24.302c4.947,3.585,11.01,5.724,17.586,5.724h152.374
		c11.216,0,20.994-6.152,26.148-15.265c1.542-2.726,2.669-5.716,3.299-8.886C631.266,1069.724,631.464,1067.76,631.464,1065.749z"/>
	<path style="fill:#818286;" d="M938.812,1065.749v-81.094c0-6.576-2.137-12.639-5.724-17.585
		c-5.454-7.526-14.293-12.44-24.299-12.44H756.414c-6.955,0-13.357,2.365-18.447,6.334c-2.758,2.151-5.13,4.774-6.997,7.746
		c-2.902,4.621-4.582,10.087-4.582,15.946v81.094c0,10.007,4.915,18.846,12.441,24.302c4.947,3.585,11.009,5.724,17.585,5.724
		h152.375c11.215,0,20.993-6.151,26.147-15.263c1.542-2.726,2.671-5.717,3.3-8.888
		C938.613,1069.724,938.812,1067.76,938.812,1065.749z"/>
	<path style="fill:#818286;" d="M1246.16,1065.749v-81.094c0-6.576-2.137-12.639-5.723-17.585c-5.454-7.526-14.293-12.44-24.3-12.44
		h-152.375c-6.956,0-13.356,2.365-18.447,6.334c-2.757,2.15-5.128,4.772-6.995,7.742c-2.903,4.622-4.584,10.089-4.584,15.949v81.094
		c0,10.007,4.915,18.846,12.441,24.302c4.946,3.585,11.009,5.724,17.585,5.724h152.375c11.216,0,20.993-6.151,26.148-15.264
		c1.543-2.726,2.67-5.716,3.3-8.887C1245.96,1069.724,1246.16,1067.76,1246.16,1065.749z"/>
	<path style="fill:#818286;" d="M1553.507,1065.749v-81.094c0-6.576-2.137-12.639-5.724-17.585
		c-5.454-7.526-14.293-12.44-24.299-12.44H1371.11c-6.956,0-13.358,2.366-18.447,6.335c-2.759,2.151-5.13,4.773-6.997,7.745
		c-2.902,4.621-4.582,10.087-4.582,15.946v81.094c0,10.007,4.915,18.846,12.44,24.302c4.946,3.585,11.009,5.724,17.585,5.724
		h152.375c11.216,0,20.993-6.152,26.149-15.264c1.54-2.726,2.669-5.716,3.298-8.886
		C1553.308,1069.724,1553.507,1067.76,1553.507,1065.749z"/>
	<path style="fill:#818286;" d="M631.464,1303.499v-81.094c0-6.575-2.137-12.639-5.724-17.585
		c-5.454-7.526-14.293-12.441-24.299-12.441H449.067c-6.956,0-13.357,2.365-18.447,6.334c-2.758,2.151-5.131,4.774-6.997,7.746
		c-2.902,4.62-4.582,10.087-4.582,15.945v81.094c0,10.008,4.915,18.846,12.44,24.302c4.947,3.585,11.01,5.724,17.586,5.724h152.374
		c11.217,0,20.995-6.152,26.15-15.266c1.541-2.725,2.669-5.715,3.298-8.884C631.266,1307.474,631.464,1305.509,631.464,1303.499z"/>
	<path style="fill:#818286;" d="M938.812,1303.499v-81.094c0-6.575-2.137-12.639-5.724-17.585
		c-5.454-7.526-14.293-12.441-24.299-12.441H756.414c-6.955,0-13.357,2.365-18.447,6.334c-2.758,2.151-5.13,4.773-6.997,7.745
		c-2.902,4.621-4.582,10.088-4.582,15.947v81.094c0,10.008,4.915,18.846,12.441,24.302c4.947,3.585,11.009,5.724,17.585,5.724
		h152.375c11.215,0,20.993-6.151,26.147-15.264c1.542-2.726,2.67-5.716,3.3-8.887
		C938.613,1307.474,938.812,1305.509,938.812,1303.499z"/>
	<path style="fill:#818286;" d="M1246.16,1303.499v-81.094c0-6.575-2.137-12.639-5.723-17.585
		c-5.454-7.526-14.293-12.441-24.3-12.441h-152.375c-6.956,0-13.356,2.365-18.447,6.334c-2.757,2.15-5.128,4.771-6.994,7.742
		c-2.903,4.621-4.585,10.089-4.585,15.949v81.094c0,10.008,4.915,18.846,12.441,24.302c4.946,3.585,11.009,5.724,17.585,5.724
		h152.375c11.217,0,20.994-6.152,26.149-15.264c1.542-2.725,2.669-5.716,3.299-8.886
		C1245.96,1307.474,1246.16,1305.509,1246.16,1303.499z"/>
	<path style="fill:#818286;" d="M1553.507,1303.499v-81.094c0-6.575-2.137-12.639-5.724-17.585
		c-5.454-7.526-14.293-12.441-24.299-12.441H1371.11c-6.956,0-13.358,2.366-18.447,6.335c-2.759,2.151-5.13,4.773-6.997,7.745
		c-2.902,4.62-4.582,10.087-4.582,15.945v81.094c0,10.008,4.915,18.846,12.44,24.302c4.946,3.585,11.009,5.724,17.585,5.724h152.375
		c11.216,0,20.994-6.152,26.149-15.265c1.542-2.725,2.669-5.716,3.298-8.885C1553.308,1307.474,1553.507,1305.509,1553.507,1303.499
		z"/>
	<path style="fill:#818286;" d="M631.464,1541.249v-81.094c0-6.576-2.137-12.638-5.724-17.585
		c-5.454-7.526-14.293-12.44-24.299-12.44H449.067c-6.956,0-13.357,2.365-18.447,6.334c-2.758,2.151-5.13,4.773-6.997,7.744
		c-2.902,4.621-4.582,10.088-4.582,15.947v81.094c0,10.008,4.915,18.846,12.44,24.302c4.947,3.585,11.01,5.724,17.586,5.724h152.374
		c11.216,0,20.994-6.153,26.148-15.265c1.542-2.726,2.67-5.716,3.299-8.886C631.266,1545.224,631.464,1543.259,631.464,1541.249z"/>
	<path style="fill:#818286;" d="M938.812,1541.249v-81.094c0-6.576-2.137-12.638-5.724-17.585
		c-5.454-7.526-14.293-12.44-24.299-12.44H756.414c-6.955,0-13.357,2.365-18.447,6.334c-2.757,2.15-5.13,4.773-6.996,7.744
		c-2.902,4.621-4.583,10.088-4.583,15.947v81.094c0,10.008,4.915,18.846,12.441,24.302c4.947,3.585,11.009,5.724,17.585,5.724
		h152.375c11.215,0,20.993-6.151,26.147-15.262c1.542-2.727,2.671-5.717,3.3-8.889
		C938.613,1545.224,938.812,1543.259,938.812,1541.249z"/>
	<path style="fill:#818286;" d="M1246.16,1541.249v-81.094c0-6.576-2.137-12.638-5.723-17.585c-5.454-7.526-14.293-12.44-24.3-12.44
		h-152.375c-6.956,0-13.356,2.365-18.447,6.334c-2.757,2.15-5.128,4.77-6.994,7.74c-2.903,4.622-4.585,10.09-4.585,15.95v81.094
		c0,10.008,4.915,18.846,12.441,24.302c4.946,3.585,11.009,5.724,17.585,5.724h152.375c11.216,0,20.993-6.151,26.148-15.263
		c1.543-2.727,2.67-5.718,3.3-8.888C1245.96,1545.224,1246.16,1543.259,1246.16,1541.249z"/>
	<path style="fill:#818286;" d="M1553.507,1541.249v-81.094c0-6.576-2.137-12.638-5.724-17.585
		c-5.454-7.526-14.293-12.44-24.299-12.44H1371.11c-6.956,0-13.358,2.366-18.447,6.335c-2.758,2.151-5.13,4.772-6.996,7.744
		c-2.902,4.621-4.582,10.088-4.582,15.947v81.094c0,10.008,4.915,18.846,12.44,24.302c4.946,3.585,11.009,5.724,17.585,5.724
		h152.375c11.216,0,20.993-6.151,26.149-15.264c1.54-2.726,2.669-5.716,3.298-8.886
		C1553.308,1545.224,1553.507,1543.26,1553.507,1541.249z"/>
	<path style="fill:#818286;" d="M631.464,1778.999v-81.093c0-6.576-2.137-12.639-5.724-17.585
		c-5.454-7.526-14.293-12.44-24.299-12.44H449.067c-6.956,0-13.357,2.365-18.447,6.334c-2.758,2.151-5.131,4.774-6.997,7.746
		c-2.902,4.621-4.582,10.087-4.582,15.945v81.093c0,10.008,4.915,18.847,12.44,24.302c4.947,3.585,11.01,5.724,17.586,5.724h152.374
		c11.216,0,20.994-6.152,26.148-15.265c1.542-2.726,2.669-5.716,3.299-8.885C631.266,1782.974,631.464,1781.01,631.464,1778.999z"/>
	<path style="fill:#818286;" d="M938.812,1778.999v-81.093c0-6.576-2.137-12.639-5.724-17.585
		c-5.454-7.526-14.293-12.44-24.299-12.44H756.414c-6.955,0-13.357,2.365-18.447,6.334c-2.758,2.15-5.13,4.774-6.997,7.745
		c-2.902,4.621-4.582,10.088-4.582,15.946v81.093c0,10.008,4.915,18.847,12.441,24.302c4.947,3.585,11.009,5.724,17.585,5.724
		h152.375c11.215,0,20.993-6.151,26.147-15.263c1.542-2.726,2.671-5.717,3.3-8.887
		C938.613,1782.974,938.812,1781.01,938.812,1778.999z"/>
	<path style="fill:#818286;" d="M1246.16,1778.999v-81.093c0-6.576-2.137-12.639-5.723-17.585c-5.454-7.526-14.293-12.44-24.3-12.44
		h-152.375c-6.956,0-13.356,2.365-18.447,6.334c-2.757,2.15-5.128,4.771-6.995,7.742c-2.903,4.621-4.584,10.089-4.584,15.949v81.093
		c0,10.008,4.915,18.847,12.441,24.302c4.946,3.585,11.009,5.724,17.585,5.724h152.375c11.216,0,20.993-6.151,26.148-15.263
		c1.543-2.727,2.67-5.717,3.3-8.887C1245.96,1782.974,1246.16,1781.01,1246.16,1778.999z"/>
	<path style="fill:#818286;" d="M1553.507,1778.999v-81.093c0-6.576-2.137-12.639-5.724-17.585
		c-5.454-7.526-14.293-12.44-24.299-12.44H1371.11c-6.956,0-13.358,2.366-18.447,6.334c-2.759,2.151-5.13,4.774-6.997,7.746
		c-2.902,4.621-4.582,10.087-4.582,15.945v81.093c0,10.008,4.915,18.847,12.44,24.302c4.946,3.585,11.009,5.724,17.585,5.724
		h152.375c11.216,0,20.993-6.151,26.149-15.264c1.54-2.726,2.669-5.716,3.298-8.886
		C1553.308,1782.974,1553.507,1781.011,1553.507,1778.999z"/>
</g>
</svg>
